PathFileType	4	(X/Y/Z)	37_1_33_p1_0-297_filt_butterworth.trc
DataRate	CameraRate	NumFrames	NumMarkers	Units	OrigDataRate	OrigDataStartFrame	OrigNumFrames
60.0	60.0	7	27	m	60.0	222	297
Frame#	Time	RHip			RKnee			RAnkle			RBigToe			RSmallToe			RHeel			LHip			LKnee			LAnkle			LBigToe			LSmallToe			LHeel			Neck			Head			Nose			RShoulder			RElbow			RWrist			RThumb			RIndex			RPinky			LShoulder			LElbow			LWrist			LThumb			LIndex			LPinky			
		X1	Y1	Z1	X2	Y2	Z2	X3	Y3	Z3	X4	Y4	Z4	X5	Y5	Z5	X6	Y6	Z6	X7	Y7	Z7	X8	Y8	Z8	X9	Y9	Z9	X10	Y10	Z10	X11	Y11	Z11	X12	Y12	Z12	X13	Y13	Z13	X14	Y14	Z14	X15	Y15	Z15	X16	Y16	Z16	X17	Y17	Z17	X18	Y18	Z18	X19	Y19	Z19	X20	Y20	Z20	X21	Y21	Z21	X22	Y22	Z22	X23	Y23	Z23	X24	Y24	Z24	X25	Y25	Z25	X26	Y26	Z26	X27	Y27	Z27	
222	3.7	0.40579843920756037	0.6939645531046321	0.5777468413742088	0.4111487501062269	0.8632387170909372	1.0009755191629732	0.3940304345272768	0.9781097846876171	1.3836012406335547	0.3736472580592143	0.8172788450213224	1.4208702206565371	0.4118870564518722	0.8270532481424022	1.420381324235957	0.3763759369608011	1.0221842145924416	1.4492612095344108	0.19949006215648046	0.7116213276376792	0.595247863750981	0.20429171658964201	0.8448900827601721	0.9974627624133587	0.1608396189355173	1.020711722424231	1.400427206890446	0.1602161775481533	0.872271993446999	1.4234177561574397	0.1093860564751039	0.9339958391713152	1.431080862217309	0.16641743175382406	1.0394015346917909	1.4338499004642564	0.28011634818019054	0.5479250410647988	0.021849790648473238	0.2728442995472735	0.4460884625014651	-0.2149245614648606	0.2845821461368077	0.3862347944841678	-0.05822613809357559	0.4423966166791738	0.5688748908818255	0.10800082544390038	0.5133053727293991	0.6265398551131961	0.3878776559088393	0.37653626524859485	0.5170313848670378	0.5898753335082197	0.2825660535416257	0.5699386682680069	0.6860018893097531	0.27971484221053416	0.5678031561892162	0.693489553987577	0.2879013576510185	0.5142303682965002	0.6899535930866061	0.11443351018246706	0.5660134190472091	0.12271793898718872	0.09193450960764589	0.6267162807065983	0.4176707573731733	0.2402972877501117	0.4674025245438392	0.5870674386013504	0.3244618558021837	0.5652191400355643	0.6462105381347545	0.33125174248630185	0.584913481329119	0.6855881053104202	0.2914874682405718	0.523273773939069	0.696465470145514
223	3.716666666666667	0.40585065913371215	0.6940427617124454	0.5778722163344319	0.41054260128683606	0.8680895870113605	1.0008688522666318	0.39484385905043595	0.9796973140233818	1.382537470403106	0.3737220271436816	0.8165847539988844	1.4205959689315055	0.4122052842152671	0.8274651524789727	1.4203740122784576	0.3787522436639926	1.0240754566074257	1.446959761786811	0.19873589067864814	0.7159854355523674	0.5944063568159812	0.20450315651913611	0.8446972722490449	0.9974191444289887	0.16114881088539634	1.0203036979731335	1.399051957362329	0.16026765622427439	0.8679360990140488	1.4204245501140318	0.10939839084762602	0.9328381966627985	1.428612258033114	0.1664402099645333	1.039329442514634	1.4337550028769739	0.2801658011755128	0.5478721487323825	0.0215368456587517	0.27284954663184124	0.4459086270830133	-0.21490437477169497	0.28288169328586	0.38590177073297	-0.05875054198559002	0.4424118498424414	0.5688809412997897	0.10799365405297998	0.5133153722514859	0.6265962102691911	0.3877959947426308	0.37654165437164044	0.5170714439893985	0.5893270198410238	0.28207382740721393	0.5684823428182472	0.6843495517936544	0.27785886078391886	0.5671894982417269	0.6924428972480045	0.2868156396247834	0.5173318335451482	0.6899608891342467	0.11564790411453248	0.5657241825472203	0.12230540392581307	0.09198266597958535	0.6269841519707171	0.4177624648434574	0.24031951759930548	0.46732206956168837	0.5868278229687605	0.3239312948186038	0.5641094383726167	0.6446603143313177	0.33020137274048955	0.5813069659624498	0.6846765985931388	0.2916106701541568	0.5235428902583918	0.6947495306078426
224	3.733333333333333	0.4058832669570861	0.6941487583527415	0.5781329881664066	0.4103004101138487	0.8699971379534484	1.0008766470614268	0.39662978762628115	0.9836573409584767	1.3824411629481133	0.3737212628014625	0.8167015068219557	1.4206543622366263	0.41228987118029525	0.8277935915712558	1.4205534323947777	0.3810503785432611	1.028405942146792	1.4454463177432018	0.19813808881890466	0.7193371748988276	0.5940080814510357	0.2046498119609558	0.8443926526130504	0.9969610166071585	0.16152689998515649	1.0198588282602945	1.3974904260826326	0.1605557043244492	0.8624828335261938	1.4175858324402146	0.109352561366784	0.9318886275107875	1.4268110526087203	0.16626599156128014	1.0391852349891129	1.4337164502520678	0.2802337040062211	0.547740819098117	0.020773665158699838	0.2728809369821444	0.44579152451875137	-0.21491255493269942	0.2810871495933458	0.3854775197710107	-0.058733227600984164	0.4424269274158278	0.5688720463011581	0.10798833892157154	0.5133252916904453	0.6266080945965726	0.38769368989954683	0.3765693920614065	0.5171366896485339	0.5893147042360847	0.281873377365231	0.5670864954461635	0.6831074287814691	0.27575853315215076	0.5664610651589167	0.6915118379895695	0.2853803411778626	0.5214234285540481	0.6898644086118305	0.1160396755302486	0.5650670928711135	0.12141712176008014	0.09205601233197253	0.6270390761113696	0.4177978096700318	0.24057895007167346	0.4671614122655472	0.5866320935599514	0.3218519048941857	0.5601308502282027	0.6452049530393549	0.32789027387346403	0.575386604275797	0.6834077996901181	0.2916955072993956	0.5239845176236597	0.6930781576166503
225	3.75	0.4059330898533959	0.6941434657857886	0.5782381180902737	0.41030705793125705	0.8698786726423908	1.000941111273115	0.3990373559133843	0.988754217299451	1.3830229266039247	0.3735409630926675	0.8192370139936764	1.4215312024272022	0.4122008316000845	0.8280351345360446	1.4208596834649367	0.3829908364019794	1.0339930388653225	1.4450591467289182	0.19796249050134995	0.7205861050221327	0.5939313874485912	0.20458962999073804	0.8444795926889347	0.995875957842895	0.16179823886284092	1.019571250990938	1.396741245458725	0.160955333607044	0.8585550310688703	1.4159493883715466	0.10922605241590473	0.9314826370184777	1.4261776846826577	0.16593483979055107	1.039040995145741	1.4336970472584403	0.28029580828388556	0.5475532308109708	0.019772538829393383	0.27291783667219477	0.4456930410763324	-0.2149391836414693	0.2797002240557265	0.38399513755350834	-0.05836960361819004	0.4424453839829231	0.5688631607220058	0.10798940243887482	0.5133322181162913	0.6265350160370988	0.387612251632993	0.3766100105499968	0.5171863349761392	0.5898112285986677	0.2813515899555983	0.5662111276682934	0.6821070121263003	0.2738255690698978	0.5657695782056185	0.6908399620528909	0.28444457954083785	0.5246797789334537	0.6902631831168143	0.11591295326173517	0.5641887444076273	0.12023585085149671	0.09206456892047794	0.6269512645179419	0.4174012418863302	0.2406094797743838	0.46690484136137833	0.5866510998609319	0.31775203781276634	0.5521041006088421	0.6478124651737966	0.32419902079220475	0.5681763867122321	0.6823269969835444	0.29162275840528407	0.5242260067524207	0.6922826825574749
226	3.7666666666666666	0.4060374991724136	0.6939558357305959	0.5779192729150845	0.41036959974959064	0.869210584966989	1.001047714852924	0.4010470492118435	0.9925479147385909	1.3845351210921484	0.37281098459217715	0.8237780131765444	1.4231083136300613	0.41200649839065545	0.8281781191015186	1.4211830123253435	0.38555107894128454	1.0385016878426616	1.4455399372924402	0.19811256142798045	0.7204170947522888	0.5940846601041586	0.20415554786717682	0.8462218940873278	0.994410835466159	0.16190342537785865	1.0194105574717371	1.3973105670365826	0.16086007944340064	0.8569075915222173	1.415405696805669	0.10904188544001912	0.9313544623508547	1.4262152290162273	0.16596762542995389	1.0390130606056576	1.4336385394143802	0.2803238336449694	0.5473855830640693	0.01900522133216727	0.27294904481393506	0.44562120488962287	-0.2149662773060973	0.2783259879601965	0.38085024650411725	-0.05772279733496463	0.4424742870247925	0.5689015119077495	0.10799682242280785	0.5133335853596516	0.6263828700440699	0.38757833103688766	0.37665844692561157	0.5171087512110317	0.5908873951488933	0.2795357505097179	0.5641047999422175	0.6807325903701411	0.2715955586586502	0.565129630070453	0.6898562238578401	0.284554455931198	0.5264259936109955	0.6919152425441264	0.11569803001110733	0.5634988914340074	0.11934522210837009	0.09166560429562005	0.6267937377944017	0.4160679642612029	0.23941857167981034	0.4668563466947261	0.5871555235289551	0.3124241935703997	0.5405880756492538	0.6515614157492882	0.319374614311641	0.5598487673966276	0.6818008689653355	0.2911292936029112	0.5247617887308486	0.6927430033349559
227	3.783333333333333	0.4061650300357292	0.6936656151624337	0.5770469364565594	0.41040542255918444	0.8688335130040106	1.0010782205780764	0.4021829867892053	0.9940797019459027	1.3869621709606645	0.37102924040558855	0.8282132376936571	1.4246694007486886	0.41170225741435496	0.8281340144367686	1.4213982588465477	0.3896569761763504	1.0408859674879067	1.4460100724918759	0.1983121315386988	0.7199363218163577	0.5945375655276963	0.20316300587834682	0.8506399099547134	0.9931540893314638	0.16192605136060292	1.019188791882031	1.3986549372270154	0.15959717301738385	0.8561026311630172	1.4152342701568312	0.10894400283888905	0.9311438354487639	1.426378320730006	0.16725894396677937	1.0391814642011468	1.4335303681786715	0.2803157992239231	0.5472911193421064	0.018682594765659637	0.2729697463228696	0.4456056932270068	-0.21497311866187796	0.27688077699332186	0.37744489345821824	-0.05707922111285539	0.44251512062538173	0.5690432018043595	0.1080029469103683	0.5133302265121661	0.6261984581696627	0.3875809562911347	0.37670967009224465	0.5167776736307224	0.592244218185554	0.27637893059525964	0.5582684961671246	0.6788677891928606	0.26863048000397155	0.5647333893328328	0.6879834070867322	0.28531391786651983	0.5274111017414193	0.694976756483946	0.11558568300560529	0.5632058115871189	0.11901389176994491	0.09053991809041317	0.6266169497015884	0.4138174450373433	0.23611831884725598	0.4679324488851435	0.5883590031849503	0.3073481586499586	0.5281809208245163	0.6549772545752126	0.3141582099932281	0.5501845039967961	0.6817259385782134	0.28997088996139053	0.5269181393600836	0.6944867456092331
228	3.8	0.4062492416986714	0.6934247222608603	0.5759088871929368	0.4104746658103717	0.8688349944398288	1.0005728485558987	0.4029937064263874	0.9942732428024076	1.389463939761647	0.36827341541670844	0.831437165565311	1.4257358140120255	0.41132383541599454	0.8278238892624437	1.421380523262088	0.39464897314891534	1.0418300228306132	1.4455073567822359	0.19840354037577523	0.7196432055266533	0.595108498460682	0.20186049867386593	0.856500413138691	0.9924350627802717	0.16195064893811695	1.0188824865418922	1.3998235018014114	0.15743687457658997	0.8552399943507207	1.4150576106454897	0.1090375284358115	0.9307764793398228	1.4264639271277901	0.17002724334810992	1.0395853670344701	1.4334754402692491	0.28029286586161883	0.5472743362135746	0.01864413831882879	0.2729713074839118	0.4457061023422514	-0.21496019372040667	0.2760432723337609	0.37709268855463385	-0.05702469594742884	0.44256421409852326	0.5692487053305754	0.10800474181694844	0.5133196404515152	0.6260320944491048	0.38760046445797636	0.3767773357687066	0.5163008991157281	0.5932906684816288	0.2727399705157931	0.5501837141517861	0.6770503615634464	0.2655482788964849	0.5652422917537875	0.6857364717811453	0.286038628452785	0.528208198115801	0.6983334260641709	0.1155464719439009	0.563201600029872	0.11896828412592206	0.08900990620082959	0.6264120334138578	0.41155881786262627	0.23146696179167556	0.47133991094861155	0.5899255553584558	0.30379650638047917	0.5196296053094958	0.6568528697181831	0.3097255747741537	0.5408463894991543	0.6818306660026429	0.2883724103069433	0.5314215760314444	0.6973195575824341
